<?xml version="1.0" encoding="utf-8"?>
<!-- Generator: Adobe Illustrator 19.0.0, SVG Export Plug-In . SVG Version: 6.00 Build 0)  -->
<svg version="1.1" id="Layer_1" xmlns="http://www.w3.org/2000/svg" xmlns:xlink="http://www.w3.org/1999/xlink" x="0px" y="0px"
	 viewBox="0 0 210.5 53" style="enable-background:new 0 0 210.5 53;" xml:space="preserve">
<style type="text/css">
	.st0{fill:#1C164B;}
	.st1{fill:#425B8F;}
	.st2{fill:#FFFFFF;}
	.st3{fill:#BF2227;}
</style>
<rect id="XMLID_31_" x="91" y="42.6" class="st0" width="11.9" height="8.9"/>
<rect id="XMLID_27_" x="104.4" y="42.6" class="st1" width="11.9" height="8.9"/>
<g id="XMLID_63_">
	<g id="XMLID_583_">
		<path id="XMLID_642_" class="st2" d="M2.1,30h1.8c1,0,1.7,0,2.1,0.1c0.5,0.1,1,0.4,1.3,0.8c0.3,0.4,0.5,0.9,0.5,1.5
			c0,0.5-0.1,0.9-0.4,1.3s-0.6,0.7-1,0.9s-1,0.3-1.8,0.3L8,39.2H6.8l-3.3-4.2H3v4.2H2.1V30z M3,30.9V34l1.6,0C5.2,34,5.7,34,6,33.9
			c0.3-0.1,0.5-0.3,0.7-0.6c0.2-0.3,0.2-0.5,0.2-0.9c0-0.3-0.1-0.6-0.2-0.8c-0.2-0.3-0.4-0.4-0.7-0.5c-0.3-0.1-0.7-0.2-1.3-0.2H3z"
			/>
		<path id="XMLID_639_" class="st2" d="M16.9,36.9l0.7,0.4c-0.2,0.5-0.5,0.9-0.8,1.1c-0.3,0.3-0.7,0.5-1.1,0.7
			c-0.4,0.2-0.8,0.2-1.3,0.2c-1.1,0-2-0.4-2.6-1.1c-0.6-0.7-0.9-1.5-0.9-2.4c0-0.9,0.3-1.6,0.8-2.3c0.7-0.9,1.6-1.3,2.7-1.3
			c1.2,0,2.1,0.4,2.8,1.3c0.5,0.6,0.7,1.4,0.7,2.3h-6.1c0,0.8,0.3,1.4,0.8,1.9s1.1,0.8,1.8,0.8c0.3,0,0.7-0.1,1-0.2
			c0.3-0.1,0.6-0.3,0.8-0.5C16.4,37.7,16.6,37.4,16.9,36.9z M16.9,35.1c-0.1-0.5-0.3-0.8-0.5-1.1c-0.2-0.3-0.5-0.5-0.9-0.7
			c-0.4-0.2-0.7-0.3-1.1-0.3c-0.7,0-1.2,0.2-1.7,0.6c-0.3,0.3-0.6,0.8-0.8,1.4H16.9z"/>
		<path id="XMLID_637_" class="st2" d="M23.8,29.8v0.9c-0.3-0.1-0.6-0.2-0.8-0.2c-0.2,0-0.3,0-0.4,0.1c-0.1,0.1-0.2,0.1-0.2,0.2
			c0,0.1,0,0.3,0,0.7l0,0.9h1.4v0.8h-1.4l0,6h-0.9v-6h-0.9v-0.8h0.9v-1.1c0-0.5,0-0.8,0.1-1c0.1-0.2,0.2-0.4,0.5-0.5
			c0.2-0.1,0.5-0.2,0.8-0.2C23.1,29.6,23.4,29.7,23.8,29.8z"/>
		<path id="XMLID_634_" class="st2" d="M32.3,36.9l0.7,0.4c-0.2,0.5-0.5,0.9-0.8,1.1s-0.7,0.5-1.1,0.7c-0.4,0.2-0.8,0.2-1.3,0.2
			c-1.1,0-2-0.4-2.6-1.1c-0.6-0.7-0.9-1.5-0.9-2.4c0-0.9,0.3-1.6,0.8-2.3c0.7-0.9,1.6-1.3,2.7-1.3c1.2,0,2.1,0.4,2.8,1.3
			c0.5,0.6,0.7,1.4,0.7,2.3h-6.1c0,0.8,0.3,1.4,0.8,1.9c0.5,0.5,1.1,0.8,1.8,0.8c0.3,0,0.7-0.1,1-0.2c0.3-0.1,0.6-0.3,0.8-0.5
			C31.8,37.7,32,37.4,32.3,36.9z M32.3,35.1c-0.1-0.5-0.3-0.8-0.5-1.1c-0.2-0.3-0.5-0.5-0.9-0.7c-0.4-0.2-0.7-0.3-1.1-0.3
			c-0.7,0-1.2,0.2-1.7,0.6c-0.3,0.3-0.6,0.8-0.8,1.4H32.3z"/>
		<path id="XMLID_632_" class="st2" d="M36.1,32.4H37v1c0.3-0.4,0.5-0.7,0.8-0.9c0.3-0.2,0.6-0.3,0.9-0.3c0.2,0,0.5,0.1,0.8,0.2
			l-0.5,0.7c-0.2-0.1-0.3-0.1-0.5-0.1c-0.3,0-0.6,0.1-0.8,0.4c-0.3,0.2-0.5,0.6-0.6,1.1C37,34.9,37,35.7,37,36.9v2.3h-0.9V32.4z"/>
		<path id="XMLID_630_" class="st2" d="M41.5,32.4h0.9v1c0.3-0.4,0.5-0.7,0.8-0.9c0.3-0.2,0.6-0.3,0.9-0.3c0.2,0,0.5,0.1,0.8,0.2
			l-0.5,0.7c-0.2-0.1-0.3-0.1-0.5-0.1c-0.3,0-0.6,0.1-0.8,0.4s-0.5,0.6-0.6,1.1c-0.1,0.4-0.2,1.2-0.2,2.3v2.3h-0.9V32.4z"/>
		<path id="XMLID_627_" class="st2" d="M53.9,32.4v6.8h-0.9V38c-0.4,0.4-0.8,0.8-1.2,1c-0.5,0.2-0.9,0.3-1.5,0.3c-1,0-1.8-0.3-2.4-1
			c-0.7-0.7-1-1.5-1-2.5c0-1,0.3-1.8,1-2.5c0.7-0.7,1.5-1,2.5-1c0.6,0,1.1,0.1,1.5,0.4c0.4,0.2,0.8,0.6,1.2,1.1v-1.2H53.9z
			 M50.5,33.1c-0.5,0-0.9,0.1-1.3,0.4c-0.4,0.2-0.7,0.6-1,1c-0.2,0.4-0.4,0.9-0.4,1.4c0,0.5,0.1,0.9,0.4,1.4c0.2,0.4,0.6,0.8,1,1
			c0.4,0.2,0.9,0.4,1.3,0.4c0.5,0,0.9-0.1,1.4-0.4c0.4-0.2,0.8-0.6,1-1c0.2-0.4,0.3-0.9,0.3-1.4c0-0.8-0.3-1.4-0.8-2
			C51.8,33.3,51.2,33.1,50.5,33.1z"/>
		<path id="XMLID_625_" class="st2" d="M57.3,29.8h0.9v9.4h-0.9V29.8z"/>
		<path id="XMLID_623_" class="st2" d="M75.6,31.6l-0.7,0.7c-0.5-0.5-1.1-0.9-1.7-1.1c-0.6-0.3-1.2-0.4-1.8-0.4
			c-0.7,0-1.4,0.2-2,0.5c-0.6,0.4-1.1,0.8-1.5,1.4c-0.4,0.6-0.5,1.2-0.5,1.9c0,0.7,0.2,1.3,0.6,2c0.4,0.6,0.9,1.1,1.5,1.5
			c0.6,0.4,1.4,0.5,2.1,0.5c0.9,0,1.7-0.3,2.4-0.8c0.6-0.5,1-1.2,1.2-2.1h-2.9v-0.9h3.9c0,1.4-0.4,2.5-1.3,3.4
			c-0.8,0.8-1.9,1.2-3.3,1.2c-1.7,0-3-0.6-4-1.7c-0.8-0.9-1.1-1.9-1.1-3.1c0-0.9,0.2-1.7,0.7-2.4c0.4-0.7,1-1.3,1.8-1.7
			c0.8-0.4,1.6-0.6,2.6-0.6c0.8,0,1.5,0.1,2.2,0.4C74.3,30.5,74.9,30.9,75.6,31.6z"/>
		<path id="XMLID_620_" class="st2" d="M85,36.9l0.7,0.4c-0.2,0.5-0.5,0.9-0.8,1.1c-0.3,0.3-0.7,0.5-1.1,0.7
			c-0.4,0.2-0.8,0.2-1.3,0.2c-1.1,0-2-0.4-2.6-1.1c-0.6-0.7-0.9-1.5-0.9-2.4c0-0.9,0.3-1.6,0.8-2.3c0.7-0.9,1.6-1.3,2.7-1.3
			c1.2,0,2.1,0.4,2.8,1.3c0.5,0.6,0.7,1.4,0.7,2.3h-6.1c0,0.8,0.3,1.4,0.8,1.9c0.5,0.5,1.1,0.8,1.8,0.8c0.3,0,0.7-0.1,1-0.2
			c0.3-0.1,0.6-0.3,0.8-0.5C84.5,37.7,84.7,37.4,85,36.9z M85,35.1c-0.1-0.5-0.3-0.8-0.5-1.1c-0.2-0.3-0.5-0.5-0.9-0.7
			c-0.4-0.2-0.7-0.3-1.2-0.3c-0.7,0-1.2,0.2-1.7,0.6c-0.3,0.3-0.6,0.8-0.8,1.4H85z"/>
		<path id="XMLID_618_" class="st2" d="M89.1,32.4H90v1.2c0.3-0.5,0.7-0.8,1.2-1c0.4-0.2,0.9-0.3,1.4-0.3c0.5,0,1,0.1,1.3,0.4
			c0.4,0.3,0.7,0.6,0.9,1c0.2,0.4,0.3,1.1,0.3,2v3.5h-0.9v-3.2c0-0.8,0-1.3-0.1-1.6c-0.1-0.4-0.3-0.8-0.6-1S92.8,33,92.3,33
			c-0.5,0-1,0.2-1.4,0.5c-0.4,0.3-0.7,0.8-0.8,1.3C90,35.2,90,35.8,90,36.7v2.5h-0.9V32.4z"/>
		<path id="XMLID_615_" class="st2" d="M104.1,36.9l0.7,0.4c-0.2,0.5-0.5,0.9-0.8,1.1c-0.3,0.3-0.7,0.5-1.1,0.7
			c-0.4,0.2-0.8,0.2-1.3,0.2c-1.1,0-2-0.4-2.6-1.1c-0.6-0.7-0.9-1.5-0.9-2.4c0-0.9,0.3-1.6,0.8-2.3c0.7-0.9,1.6-1.3,2.7-1.3
			c1.2,0,2.1,0.4,2.8,1.3c0.5,0.6,0.7,1.4,0.7,2.3H99c0,0.8,0.3,1.4,0.8,1.9c0.5,0.5,1.1,0.8,1.8,0.8c0.3,0,0.7-0.1,1-0.2
			c0.3-0.1,0.6-0.3,0.8-0.5C103.6,37.7,103.9,37.4,104.1,36.9z M104.1,35.1c-0.1-0.5-0.3-0.8-0.5-1.1c-0.2-0.3-0.5-0.5-0.9-0.7
			c-0.4-0.2-0.7-0.3-1.2-0.3c-0.7,0-1.2,0.2-1.7,0.6c-0.3,0.3-0.6,0.8-0.8,1.4H104.1z"/>
		<path id="XMLID_613_" class="st2" d="M107.9,32.4h0.9v1c0.3-0.4,0.5-0.7,0.8-0.9c0.3-0.2,0.6-0.3,0.9-0.3c0.2,0,0.5,0.1,0.8,0.2
			l-0.5,0.7c-0.2-0.1-0.3-0.1-0.5-0.1c-0.3,0-0.6,0.1-0.8,0.4c-0.3,0.2-0.5,0.6-0.6,1.1c-0.1,0.4-0.2,1.2-0.2,2.3v2.3h-0.9V32.4z"/>
		<path id="XMLID_610_" class="st2" d="M120.4,32.4v6.8h-0.9V38c-0.4,0.4-0.8,0.8-1.2,1c-0.5,0.2-0.9,0.3-1.5,0.3
			c-1,0-1.8-0.3-2.4-1c-0.7-0.7-1-1.5-1-2.5c0-1,0.3-1.8,1-2.5c0.7-0.7,1.5-1,2.5-1c0.6,0,1.1,0.1,1.5,0.4c0.4,0.2,0.8,0.6,1.2,1.1
			v-1.2H120.4z M116.9,33.1c-0.5,0-0.9,0.1-1.3,0.4c-0.4,0.2-0.7,0.6-1,1c-0.2,0.4-0.4,0.9-0.4,1.4c0,0.5,0.1,0.9,0.4,1.4
			c0.2,0.4,0.6,0.8,1,1c0.4,0.2,0.9,0.4,1.3,0.4c0.5,0,0.9-0.1,1.4-0.4c0.4-0.2,0.8-0.6,1-1c0.2-0.4,0.3-0.9,0.3-1.4
			c0-0.8-0.3-1.4-0.8-2C118.3,33.3,117.7,33.1,116.9,33.1z"/>
		<path id="XMLID_608_" class="st2" d="M124.7,29.9h0.9v2.5h1.4v0.8h-1.4v6h-0.9v-6h-1.2v-0.8h1.2V29.9z"/>
		<path id="XMLID_605_" class="st2" d="M130.1,29.6c0.2,0,0.4,0.1,0.5,0.2c0.1,0.1,0.2,0.3,0.2,0.5c0,0.2-0.1,0.4-0.2,0.5
			c-0.1,0.1-0.3,0.2-0.5,0.2c-0.2,0-0.4-0.1-0.5-0.2c-0.1-0.1-0.2-0.3-0.2-0.5c0-0.2,0.1-0.4,0.2-0.5
			C129.7,29.7,129.9,29.6,130.1,29.6z M129.6,32.4h0.9v6.8h-0.9V32.4z"/>
		<path id="XMLID_602_" class="st2" d="M137.1,32.2c1,0,1.9,0.4,2.6,1.1c0.6,0.7,0.9,1.5,0.9,2.4c0,0.9-0.3,1.8-1,2.5
			c-0.7,0.7-1.5,1.1-2.5,1.1c-1,0-1.9-0.4-2.5-1.1s-1-1.5-1-2.5c0-0.9,0.3-1.7,0.9-2.4C135.2,32.6,136,32.2,137.1,32.2z M137.1,33.1
			c-0.7,0-1.3,0.3-1.9,0.8c-0.5,0.5-0.8,1.2-0.8,1.9c0,0.5,0.1,0.9,0.4,1.4s0.6,0.7,1,1c0.4,0.2,0.8,0.3,1.3,0.3
			c0.5,0,0.9-0.1,1.3-0.3c0.4-0.2,0.7-0.6,1-1c0.2-0.4,0.4-0.9,0.4-1.4c0-0.8-0.3-1.4-0.8-1.9C138.4,33.3,137.8,33.1,137.1,33.1z"/>
		<path id="XMLID_600_" class="st2" d="M143.8,32.4h0.9v1.2c0.3-0.5,0.7-0.8,1.2-1c0.4-0.2,0.9-0.3,1.4-0.3c0.5,0,1,0.1,1.3,0.4
			c0.4,0.3,0.7,0.6,0.9,1s0.3,1.1,0.3,2v3.5h-0.9v-3.2c0-0.8,0-1.3-0.1-1.6c-0.1-0.4-0.3-0.8-0.6-1S147.5,33,147,33
			c-0.5,0-1,0.2-1.4,0.5c-0.4,0.3-0.7,0.8-0.8,1.3c-0.1,0.3-0.1,0.9-0.1,1.8v2.5h-0.9V32.4z"/>
		<path id="XMLID_598_" class="st2" d="M158.3,30h5.2v0.9h-4.3v2.9h4.3v0.9h-4.3v3.6h4.3v0.9h-5.2V30z"/>
		<path id="XMLID_596_" class="st2" d="M165.8,32.4h1l1.8,2.5l1.8-2.5h1l-2.3,3.2l2.6,3.6h-1.1l-2.1-2.8l-2,2.8h-1l2.6-3.6
			L165.8,32.4z"/>
		<path id="XMLID_593_" class="st2" d="M174.2,32.4h0.9v1.2c0.3-0.5,0.7-0.8,1.2-1.1c0.4-0.2,0.9-0.4,1.5-0.4c1,0,1.8,0.3,2.5,1
			c0.7,0.7,1,1.5,1,2.5c0,1-0.3,1.8-1,2.5c-0.7,0.7-1.5,1-2.4,1c-0.5,0-1-0.1-1.5-0.3c-0.5-0.2-0.9-0.6-1.2-1v3.6h-0.9V32.4z
			 M177.7,33.1c-0.8,0-1.4,0.3-1.9,0.8c-0.5,0.5-0.8,1.2-0.8,2c0,0.5,0.1,1,0.3,1.4c0.2,0.4,0.6,0.7,1,1c0.4,0.2,0.9,0.4,1.4,0.4
			c0.5,0,0.9-0.1,1.3-0.4c0.4-0.2,0.7-0.6,1-1c0.2-0.4,0.4-0.9,0.4-1.4c0-0.5-0.1-0.9-0.4-1.4c-0.2-0.4-0.6-0.8-1-1
			S178.2,33.1,177.7,33.1z"/>
		<path id="XMLID_590_" class="st2" d="M190.1,36.9l0.7,0.4c-0.2,0.5-0.5,0.9-0.8,1.1c-0.3,0.3-0.7,0.5-1.1,0.7
			c-0.4,0.2-0.8,0.2-1.3,0.2c-1.1,0-2-0.4-2.6-1.1c-0.6-0.7-0.9-1.5-0.9-2.4c0-0.9,0.3-1.6,0.8-2.3c0.7-0.9,1.6-1.3,2.7-1.3
			c1.2,0,2.1,0.4,2.8,1.3c0.5,0.6,0.7,1.4,0.7,2.3H185c0,0.8,0.3,1.4,0.8,1.9c0.5,0.5,1.1,0.8,1.8,0.8c0.3,0,0.7-0.1,1-0.2
			c0.3-0.1,0.6-0.3,0.8-0.5C189.6,37.7,189.9,37.4,190.1,36.9z M190.1,35.1c-0.1-0.5-0.3-0.8-0.5-1.1c-0.2-0.3-0.5-0.5-0.9-0.7
			s-0.7-0.3-1.1-0.3c-0.7,0-1.2,0.2-1.7,0.6c-0.3,0.3-0.6,0.8-0.8,1.4H190.1z"/>
		<path id="XMLID_588_" class="st2" d="M193.9,32.4h0.9v1c0.3-0.4,0.5-0.7,0.8-0.9c0.3-0.2,0.6-0.3,0.9-0.3c0.2,0,0.5,0.1,0.8,0.2
			l-0.5,0.7c-0.2-0.1-0.3-0.1-0.5-0.1c-0.3,0-0.6,0.1-0.8,0.4c-0.3,0.2-0.5,0.6-0.6,1.1c-0.1,0.4-0.2,1.2-0.2,2.3v2.3h-0.9V32.4z"/>
		<path id="XMLID_586_" class="st2" d="M200.4,29.9h0.9v2.5h1.4v0.8h-1.4v6h-0.9v-6h-1.2v-0.8h1.2V29.9z"/>
		<path id="XMLID_584_" class="st2" d="M208.9,33.1l-0.6,0.6c-0.5-0.5-0.9-0.7-1.4-0.7c-0.3,0-0.5,0.1-0.7,0.3
			c-0.2,0.2-0.3,0.4-0.3,0.7c0,0.2,0.1,0.4,0.2,0.6c0.2,0.2,0.5,0.4,1,0.7c0.6,0.3,1.1,0.7,1.3,1c0.2,0.3,0.3,0.7,0.3,1.1
			c0,0.6-0.2,1-0.6,1.4c-0.4,0.4-0.9,0.6-1.5,0.6c-0.4,0-0.8-0.1-1.1-0.3c-0.4-0.2-0.6-0.4-0.9-0.7l0.5-0.6c0.4,0.5,0.9,0.8,1.4,0.8
			c0.3,0,0.6-0.1,0.9-0.3c0.2-0.2,0.4-0.5,0.4-0.8c0-0.2-0.1-0.5-0.2-0.7c-0.2-0.2-0.5-0.4-1.1-0.7c-0.6-0.3-1-0.6-1.2-0.9
			s-0.3-0.7-0.3-1c0-0.5,0.2-0.9,0.5-1.3c0.3-0.3,0.8-0.5,1.3-0.5C207.7,32.2,208.3,32.5,208.9,33.1z"/>
	</g>
</g>
<rect id="XMLID_52_" x="117.8" y="42.6" class="st3" width="11.9" height="8.9"/>
<g id="XMLID_44_">
	<g id="XMLID_16_">
		<path id="XMLID_112_" class="st2" d="M13.9,5.1l-2.9,2.5c-1-1.4-2-2.1-3.1-2.1C7.5,5.6,7.1,5.7,6.7,6C6.4,6.2,6.3,6.5,6.3,6.9
			c0,0.3,0.1,0.7,0.3,1c0.3,0.4,1.3,1.3,2.8,2.6c1.5,1.2,2.4,2,2.7,2.3c0.8,0.8,1.3,1.5,1.7,2.3c0.3,0.7,0.5,1.5,0.5,2.4
			c0,1.7-0.6,3-1.7,4.1c-1.2,1.1-2.7,1.6-4.5,1.6c-1.4,0-2.7-0.4-3.8-1.1s-2-1.8-2.8-3.3l3.2-2c1,1.8,2.1,2.7,3.4,2.7
			c0.7,0,1.2-0.2,1.7-0.6c0.5-0.4,0.7-0.8,0.7-1.3c0-0.5-0.2-0.9-0.5-1.4c-0.3-0.5-1.1-1.2-2.3-2.1c-2.2-1.8-3.6-3.2-4.3-4.2
			s-1-2-1-2.9c0-1.4,0.5-2.6,1.6-3.6c1.1-1,2.4-1.5,4-1.5c1,0,2,0.2,2.9,0.7C11.9,3,12.9,3.9,13.9,5.1z"/>
		<path id="XMLID_114_" class="st2" d="M27.4,7.7h3.8v15h-3.8v-1.6c-0.7,0.7-1.5,1.2-2.2,1.5c-0.7,0.3-1.5,0.5-2.4,0.5
			c-1.9,0-3.6-0.8-5-2.3c-1.4-1.5-2.1-3.4-2.1-5.6c0-2.3,0.7-4.2,2.1-5.7c1.4-1.5,3-2.2,5-2.2c0.9,0,1.7,0.2,2.5,0.5
			c0.8,0.3,1.5,0.9,2.2,1.5V7.7z M23.5,10.7c-1.2,0-2.1,0.4-2.9,1.2c-0.8,0.8-1.2,1.9-1.2,3.2c0,1.3,0.4,2.4,1.2,3.2
			c0.8,0.8,1.7,1.3,2.9,1.3c1.2,0,2.2-0.4,2.9-1.2c0.8-0.8,1.2-1.9,1.2-3.2c0-1.3-0.4-2.4-1.2-3.2C25.7,11.2,24.7,10.7,23.5,10.7z"
			/>
		<path id="XMLID_118_" class="st2" d="M33.4,1.9h3.8v20.8h-3.8V1.9z"/>
		<path id="XMLID_120_" class="st2" d="M54.5,16.3H42.4c0.2,1.1,0.6,1.9,1.4,2.5c0.8,0.6,1.7,0.9,2.9,0.9c1.4,0,2.6-0.5,3.6-1.5
			l3.2,1.5c-0.8,1.1-1.7,2-2.8,2.5c-1.1,0.5-2.4,0.8-3.9,0.8c-2.4,0-4.3-0.7-5.8-2.2c-1.5-1.5-2.2-3.3-2.2-5.6
			c0-2.3,0.7-4.2,2.2-5.7c1.5-1.5,3.3-2.3,5.6-2.3c2.4,0,4.3,0.8,5.8,2.3c1.5,1.5,2.2,3.5,2.2,6L54.5,16.3z M50.7,13.3
			c-0.2-0.8-0.7-1.5-1.5-2c-0.7-0.5-1.6-0.8-2.5-0.8c-1.1,0-2,0.3-2.8,0.9c-0.5,0.4-1,1-1.4,1.9H50.7z"/>
		<path id="XMLID_123_" class="st2" d="M65.5,9.8l-2.3,2.3c-0.9-0.9-1.8-1.4-2.6-1.4c-0.4,0-0.8,0.1-1,0.3c-0.2,0.2-0.4,0.4-0.4,0.7
			c0,0.2,0.1,0.4,0.2,0.6c0.2,0.2,0.5,0.4,1.1,0.7l1.4,0.7c1.5,0.7,2.5,1.4,3,2.2c0.5,0.7,0.8,1.6,0.8,2.6c0,1.3-0.5,2.4-1.5,3.3
			c-1,0.9-2.3,1.3-3.9,1.3c-2.2,0-3.9-0.9-5.2-2.6l2.3-2.5c0.4,0.5,1,0.9,1.6,1.2c0.6,0.3,1.1,0.5,1.6,0.5c0.5,0,0.9-0.1,1.2-0.4
			c0.3-0.2,0.5-0.5,0.5-0.8c0-0.6-0.5-1.1-1.6-1.7l-1.3-0.6c-2.4-1.2-3.6-2.8-3.6-4.6c0-1.2,0.5-2.2,1.4-3c0.9-0.8,2.1-1.3,3.5-1.3
			c1,0,1.9,0.2,2.8,0.6C64.2,8.3,64.9,9,65.5,9.8z"/>
	</g>
	<g id="XMLID_23_">
		<g id="XMLID_256_">
			<path id="XMLID_272_" class="st2" d="M80.5,5.8l-2.9,2.5c-1-1.4-2-2.1-3.1-2.1c-0.5,0-0.9,0.1-1.2,0.4c-0.3,0.3-0.5,0.6-0.5,0.9
				c0,0.3,0.1,0.7,0.3,1c0.3,0.4,1.3,1.3,2.8,2.6c1.5,1.2,2.4,2,2.7,2.3c0.8,0.8,1.3,1.5,1.7,2.3c0.3,0.7,0.5,1.5,0.5,2.4
				c0,1.7-0.6,3-1.7,4.1c-1.2,1.1-2.7,1.6-4.5,1.6c-1.4,0-2.7-0.4-3.8-1.1s-2-1.8-2.8-3.3l3.2-2c1,1.8,2.1,2.7,3.4,2.7
				c0.7,0,1.2-0.2,1.7-0.6c0.5-0.4,0.7-0.8,0.7-1.3c0-0.5-0.2-0.9-0.5-1.4c-0.3-0.5-1.1-1.2-2.3-2.1c-2.2-1.8-3.6-3.2-4.3-4.2
				s-1-2-1-2.9c0-1.4,0.5-2.6,1.6-3.6c1.1-1,2.4-1.5,4-1.5c1,0,2,0.2,2.9,0.7C78.4,3.7,79.4,4.6,80.5,5.8z"/>
			<path id="XMLID_270_" class="st2" d="M82.5,8.4h3.8v7.2c0,1.4,0.1,2.4,0.3,2.9c0.2,0.5,0.5,1,0.9,1.3c0.4,0.3,1,0.5,1.6,0.5
				c0.6,0,1.2-0.1,1.6-0.4c0.4-0.3,0.8-0.7,1-1.3c0.2-0.4,0.2-1.4,0.2-2.8V8.4h3.8v6.4c0,2.6-0.2,4.4-0.6,5.4
				c-0.5,1.2-1.3,2.1-2.2,2.7c-1,0.6-2.2,0.9-3.8,0.9c-1.6,0-3-0.4-4-1.1c-1-0.7-1.7-1.8-2.1-3.1c-0.3-0.9-0.4-2.6-0.4-5V8.4z"/>
			<path id="XMLID_267_" class="st2" d="M101.6,8.4V10c0.7-0.7,1.4-1.2,2.2-1.5c0.8-0.3,1.6-0.5,2.5-0.5c2,0,3.6,0.7,5,2.2
				c1.4,1.5,2.1,3.4,2.1,5.7c0,2.2-0.7,4.1-2.1,5.6c-1.4,1.5-3.1,2.3-5,2.3c-0.9,0-1.7-0.2-2.4-0.5c-0.7-0.3-1.5-0.8-2.2-1.5v7.1
				h-3.7V8.4H101.6z M105.5,11.5c-1.2,0-2.2,0.4-3,1.2c-0.8,0.8-1.2,1.9-1.2,3.2c0,1.3,0.4,2.4,1.2,3.2c0.8,0.8,1.8,1.2,3,1.2
				c1.1,0,2.1-0.4,2.9-1.3c0.8-0.8,1.2-1.9,1.2-3.2c0-1.3-0.4-2.3-1.2-3.2C107.7,11.9,106.7,11.5,105.5,11.5z"/>
			<path id="XMLID_264_" class="st2" d="M118.6,8.4V10c0.7-0.7,1.4-1.2,2.2-1.5c0.8-0.3,1.6-0.5,2.5-0.5c2,0,3.6,0.7,5,2.2
				c1.4,1.5,2.1,3.4,2.1,5.7c0,2.2-0.7,4.1-2.1,5.6c-1.4,1.5-3.1,2.3-5,2.3c-0.9,0-1.7-0.2-2.4-0.5c-0.7-0.3-1.5-0.8-2.2-1.5v7.1
				h-3.7V8.4H118.6z M122.6,11.5c-1.2,0-2.2,0.4-3,1.2c-0.8,0.8-1.2,1.9-1.2,3.2c0,1.3,0.4,2.4,1.2,3.2c0.8,0.8,1.8,1.2,3,1.2
				c1.1,0,2.1-0.4,2.9-1.3c0.8-0.8,1.2-1.9,1.2-3.2c0-1.3-0.4-2.3-1.2-3.2C124.7,11.9,123.7,11.5,122.6,11.5z"/>
			<path id="XMLID_261_" class="st2" d="M139,8c1.4,0,2.7,0.4,4,1.1c1.2,0.7,2.2,1.7,2.9,2.9c0.7,1.2,1,2.5,1,3.9
				c0,1.4-0.4,2.7-1.1,4c-0.7,1.2-1.7,2.2-2.9,2.9c-1.2,0.7-2.6,1-4,1c-2.2,0-4-0.8-5.5-2.3c-1.5-1.5-2.3-3.4-2.3-5.6
				c0-2.3,0.9-4.3,2.6-5.9C135.3,8.7,137,8,139,8z M139,11.5c-1.2,0-2.1,0.4-2.9,1.2c-0.8,0.8-1.2,1.9-1.2,3.1
				c0,1.3,0.4,2.4,1.2,3.2c0.8,0.8,1.7,1.2,2.9,1.2c1.2,0,2.2-0.4,2.9-1.2c0.8-0.8,1.2-1.9,1.2-3.2c0-1.3-0.4-2.3-1.2-3.1
				C141.2,11.9,140.2,11.5,139,11.5z"/>
			<path id="XMLID_259_" class="st2" d="M147.5,8.4h3.2v1.9c0.3-0.7,0.8-1.3,1.4-1.7c0.6-0.4,1.2-0.6,1.9-0.6c0.5,0,1,0.1,1.5,0.4
				l-1.2,3.2c-0.4-0.2-0.8-0.3-1.1-0.3c-0.6,0-1.1,0.4-1.5,1.1c-0.4,0.7-0.6,2.1-0.6,4.2l0,0.7v6.1h-3.7V8.4z"/>
			<path id="XMLID_257_" class="st2" d="M156.3,2.8h3.8v5.5h2.2v3.2H160v11.8h-3.8V11.6h-1.9V8.4h1.9V2.8z"/>
		</g>
	</g>
	<g id="XMLID_14_">
		<g id="XMLID_34_">
			<path id="XMLID_35_" class="st2" d="M169.1,8.1h-3.7c0.2-1.5,0.7-2.7,1.6-3.6c1.2-1.3,2.8-1.9,4.6-1.9c1.7,0,3.1,0.5,4.2,1.6
				c1.1,1.1,1.7,2.3,1.7,3.8c0,0.9-0.2,1.7-0.7,2.5c-0.5,0.7-1.2,1.3-2.1,1.8c1.2,0.4,2.2,1,2.9,1.9c0.7,0.9,1,2,1,3.2
				c0,1.8-0.7,3.4-2,4.6c-1.3,1.3-3.1,1.9-5.1,1.9c-2,0-3.6-0.6-4.8-1.8c-1.2-1.2-1.9-2.8-2-4.9h3.8c0.2,1,0.5,1.8,1.1,2.3
				c0.6,0.5,1.3,0.8,2.1,0.8c0.9,0,1.6-0.3,2.2-0.9c0.6-0.6,0.9-1.3,0.9-2.1c0-0.9-0.4-1.7-1.2-2.3s-2-1-3.5-1v-3.3
				c0.9-0.1,1.6-0.2,2.1-0.4c0.5-0.2,0.8-0.5,1.1-0.9c0.3-0.4,0.4-0.8,0.4-1.2c0-0.6-0.2-1-0.6-1.4c-0.4-0.4-0.9-0.5-1.5-0.5
				c-0.6,0-1.1,0.2-1.5,0.5C169.6,7.1,169.2,7.6,169.1,8.1z"/>
		</g>
	</g>
	<g id="XMLID_51_">
		<g id="XMLID_48_">
			<path id="XMLID_49_" class="st2" d="M187.3,2.6l3.3,1.6l-3.6,6.9c1.7,0,3.2,0.6,4.4,1.8c1.2,1.2,1.8,2.8,1.8,4.6
				c0,1.8-0.6,3.3-1.9,4.5c-1.2,1.2-2.7,1.8-4.5,1.8c-1.8,0-3.4-0.6-4.6-1.9c-1.2-1.3-1.8-2.7-1.8-4.4c0-0.6,0.1-1.3,0.3-1.9
				c0.2-0.6,0.6-1.6,1.3-2.9L187.3,2.6z M186.8,14.8c-0.7,0-1.3,0.3-1.8,0.8c-0.5,0.5-0.7,1.2-0.7,2c0,0.8,0.3,1.4,0.8,2
				c0.5,0.5,1.1,0.8,1.8,0.8c0.7,0,1.3-0.3,1.8-0.8s0.8-1.2,0.8-2c0-0.8-0.3-1.4-0.8-2C188.2,15,187.6,14.8,186.8,14.8z"/>
		</g>
	</g>
	<g id="XMLID_50_">
		<g id="XMLID_55_">
			<path id="XMLID_56_" class="st2" d="M202.3,2.6c1.5,0,2.8,0.4,3.8,1.1c1.1,0.7,1.9,1.8,2.5,3.3c0.6,1.5,0.9,3.6,0.9,6.2
				c0,2.7-0.3,4.8-0.9,6.3c-0.6,1.5-1.4,2.6-2.4,3.3c-1,0.7-2.3,1.1-3.8,1.1s-2.8-0.4-3.8-1.1s-1.9-1.8-2.4-3.2
				c-0.6-1.4-0.9-3.5-0.9-6.2c0-3.7,0.6-6.4,1.7-8.1C198.3,3.5,200.1,2.6,202.3,2.6z M202.4,6.2c-0.7,0-1.2,0.2-1.7,0.6
				c-0.5,0.4-0.9,1.1-1.2,2.2c-0.3,1-0.4,2.5-0.4,4.5c0,2.6,0.3,4.3,0.9,5.3c0.6,1,1.4,1.5,2.4,1.5c0.9,0,1.7-0.5,2.2-1.4
				c0.7-1.1,1-3,1-5.6c0-2.7-0.3-4.5-0.9-5.5C204.2,6.7,203.4,6.2,202.4,6.2z"/>
		</g>
	</g>
</g>
</svg>

